# OBJ generated by ONSHAPE BY PTC INC, 1.213 Units = meters
mtllib Selector.mtl
g Selector
v -0.0149121 0 0.00162179 
v -0.015 0 -9.18485e-19 
v -0.015 0.01 -9.18485e-19 
v -0.0146493 0 0.00322456 
v -0.0149121 0.01 0.00162179 
v -0.0142148 0 0.00478952 
v -0.0146493 0.01 0.00322456 
v -0.0136136 0 0.00629834 
v -0.0142148 0.01 0.00478952 
v -0.0128529 0 0.00773331 
v -0.0136136 0.01 0.00629834 
v -0.0119414 0 0.00907761 
v -0.0128529 0.01 0.00773331 
v -0.0108899 0 0.0103155 
v -0.0119414 0.01 0.00907761 
v -0.00971079 0 0.0114324 
v -0.0108899 0.01 0.0103155 
v -0.00841781 0 0.0124153 
v -0.00971079 0.01 0.0114324 
v -0.00702613 0 0.0132527 
v -0.00841781 0.01 0.0124153 
v -0.00555207 0 0.0139347 
v -0.00702613 0.01 0.0132527 
v -0.00401293 0 0.0144532 
v -0.00555207 0.01 0.0139347 
v -0.00242673 0 0.0148024 
v -0.00401293 0.01 0.0144532 
v -0.000812084 0 0.014978 
v -0.00242673 0.01 0.0148024 
v 0.000812084 0 0.014978 
v -0.000812084 0.01 0.014978 
v 0.00242673 0 0.0148024 
v 0.000812084 0.01 0.014978 
v 0.00401293 0 0.0144532 
v 0.00242673 0.01 0.0148024 
v 0.00555207 0 0.0139347 
v 0.00401293 0.01 0.0144532 
v 0.00702613 0 0.0132527 
v 0.00555207 0.01 0.0139347 
v 0.00841781 0 0.0124153 
v 0.00702613 0.01 0.0132527 
v 0.00971079 0 0.0114324 
v 0.00841781 0.01 0.0124153 
v 0.0108899 0 0.0103155 
v 0.00971079 0.01 0.0114324 
v 0.0119414 0 0.00907761 
v 0.0108899 0.01 0.0103155 
v 0.0128529 0 0.00773331 
v 0.0119414 0.01 0.00907761 
v 0.0136136 0 0.00629834 
v 0.0128529 0.01 0.00773331 
v 0.0142148 0 0.00478952 
v 0.0136136 0.01 0.00629834 
v 0.0146493 0 0.00322456 
v 0.0142148 0.01 0.00478952 
v 0.0149121 0 0.00162179 
v 0.0146493 0.01 0.00322456 
v 0.015 0 -6.4294e-18 
v 0.0149121 0.01 0.00162179 
v 0.0149121 0 -0.00162179 
v 0.015 0.01 -2.75546e-18 
v 0.0146493 0 -0.00322456 
v 0.0149121 0.01 -0.00162179 
v 0.0142148 0 -0.00478952 
v 0.0146493 0.01 -0.00322456 
v 0.0136136 0 -0.00629834 
v 0.0142148 0.01 -0.00478952 
v 0.0128529 0 -0.00773331 
v 0.0136136 0.01 -0.00629834 
v 0.0119414 0 -0.00907761 
v 0.0128529 0.01 -0.00773331 
v 0.0108899 0 -0.0103155 
v 0.0119414 0.01 -0.00907761 
v 0.00971079 0 -0.0114324 
v 0.0108899 0.01 -0.0103155 
v 0.00841781 0 -0.0124153 
v 0.00971079 0.01 -0.0114324 
v 0.00702613 0 -0.0132527 
v 0.00841781 0.01 -0.0124153 
v 0.00555207 0 -0.0139347 
v 0.00702613 0.01 -0.0132527 
v 0.00401293 0 -0.0144532 
v 0.00555207 0.01 -0.0139347 
v 0.00242673 0 -0.0148024 
v 0.00401293 0.01 -0.0144532 
v 0.000812084 0 -0.014978 
v 0.00242673 0.01 -0.0148024 
v -0.000812084 0 -0.014978 
v 0.000812084 0.01 -0.014978 
v -0.00242673 0 -0.0148024 
v -0.000812084 0.01 -0.014978 
v -0.00401293 0 -0.0144532 
v -0.00242673 0.01 -0.0148024 
v -0.00555207 0 -0.0139347 
v -0.00401293 0.01 -0.0144532 
v -0.00702613 0 -0.0132527 
v -0.00555207 0.01 -0.0139347 
v -0.00841781 0 -0.0124153 
v -0.00702613 0.01 -0.0132527 
v -0.00971079 0 -0.0114324 
v -0.00841781 0.01 -0.0124153 
v -0.0108899 0 -0.0103155 
v -0.00971079 0.01 -0.0114324 
v -0.0119414 0 -0.00907761 
v -0.0108899 0.01 -0.0103155 
v -0.0128529 0 -0.00773331 
v -0.0119414 0.01 -0.00907761 
v -0.0136136 0 -0.00629834 
v -0.0128529 0.01 -0.00773331 
v -0.0142148 0 -0.00478952 
v -0.0136136 0.01 -0.00629834 
v -0.0146493 0 -0.00322456 
v -0.0142148 0.01 -0.00478952 
v -0.0149121 0 -0.00162179 
v -0.0146493 0.01 -0.00322456 
v -0.0149121 0.01 -0.00162179 
v -0.0202578 0.01 -0.01465 
v -0.0216964 0.01 -0.0124204 
v -0.023827 0.01 0.00756804 
v -0.0228906 0.01 0.0100508 
v -0.0185909 0.01 -0.0167146 
v -0.0216964 0.01 0.0124204 
v -0.0185909 0.01 0.0167146 
v -0.0167146 0.01 0.0185909 
v -0.023827 0.01 -0.00756804 
v -0.0244949 0.01 -0.005 
v -0.0228906 0.01 -0.0100508 
v 0.01465 0.01 -0.0202578 
v 0.0124204 0.01 -0.0216964 
v -0.0202578 0.01 0.01465 
v -0.01465 0.01 0.0202578 
v -0.0124204 0.01 0.0216964 
v -0.0100508 0.01 0.0228906 
v -0.00756804 0.01 0.023827 
v -0.005 0.01 0.0244949 
v -0.00756804 0.01 -0.023827 
v -0.0100508 0.01 -0.0228906 
v -0.0124204 0.01 -0.0216964 
v -0.0167146 0.01 -0.0185909 
v 0.0167146 0.01 -0.0185909 
v 0.0216964 0.01 0.0124204 
v 0.0228906 0.01 0.0100508 
v -0.0244949 0.01 0.005 
v -0.005 0.01 -0.0244949 
v -0.01465 0.01 -0.0202578 
v 0.00756804 0.01 -0.023827 
v 0.005 0.01 -0.0244949 
v 0.0100508 0.01 -0.0228906 
v 0.0202578 0.01 0.01465 
v 0.0244949 0.01 -0.005 
v 0.023827 0.01 -0.00756804 
v 0.0228906 0.01 -0.0100508 
v 0.0216964 0.01 -0.0124204 
v 0.0202578 0.01 -0.01465 
v 0.005 0.01 0.0244949 
v 0.00756804 0.01 0.023827 
v 0.0100508 0.01 0.0228906 
v 0.023827 0.01 0.00756804 
v 0.0244949 0.01 0.005 
v 0.0185909 0.01 0.0167146 
v 0.0185909 0.01 -0.0167146 
v 0.0124204 0.01 0.0216964 
v 0.01465 0.01 0.0202578 
v 0.0167146 0.01 0.0185909 
v 0.005 0.01 0.04 
v -0.04 0.01 0.005 
v -0.005 0.01 -0.04 
v 0.04 0.01 -0.005 
v -0.04 0.01 -0.005 
v 0.005 0.01 -0.04 
v 0.04 0.01 0.005 
v -0.005 0.01 0.04 
v 0.01465 0 0.0202578 
v 0.0124204 0 0.0216964 
v 0.0202578 0 0.01465 
v 0.0185909 0 0.0167146 
v 0.0167146 0 0.0185909 
v 0.00756804 0 0.023827 
v 0.005 0 0.0244949 
v -0.0167146 0 -0.0185909 
v -0.01465 0 -0.0202578 
v -0.0100508 0 0.0228906 
v -0.0124204 0 0.0216964 
v 0.0100508 0 0.0228906 
v 0.0216964 0 -0.0124204 
v 0.0228906 0 -0.0100508 
v -0.0124204 0 -0.0216964 
v -0.0100508 0 -0.0228906 
v -0.00756804 0 -0.023827 
v -0.00756804 0 0.023827 
v 0.0202578 0 -0.01465 
v -0.0244949 0 -0.005 
v -0.0185909 0 -0.0167146 
v -0.005 0 -0.0244949 
v -0.01465 0 0.0202578 
v -0.005 0 0.0244949 
v -0.0216964 0 0.0124204 
v -0.0228906 0 0.0100508 
v -0.0185909 0 0.0167146 
v -0.0202578 0 0.01465 
v 0.0244949 0 0.005 
v 0.023827 0 0.00756804 
v 0.0100508 0 -0.0228906 
v 0.0124204 0 -0.0216964 
v 0.01465 0 -0.0202578 
v 0.023827 0 -0.00756804 
v 0.0244949 0 -0.005 
v 0.0185909 0 -0.0167146 
v -0.023827 0 -0.00756804 
v -0.0228906 0 -0.0100508 
v -0.0216964 0 -0.0124204 
v -0.0202578 0 -0.01465 
v -0.0167146 0 0.0185909 
v -0.023827 0 0.00756804 
v -0.0244949 0 0.005 
v 0.0228906 0 0.0100508 
v 0.0216964 0 0.0124204 
v 0.0167146 0 -0.0185909 
v 0.005 0 -0.0244949 
v 0.00756804 0 -0.023827 
v -0.005 0 0.04 
v -0.04 0 -0.005 
v 0.005 0 0.04 
v 0.005 0 -0.04 
v 0.04 0 0.005 
v -0.04 0 0.005 
v 0.04 0 -0.005 
v -0.005 0 -0.04 
vn 0.994138 0 -0.108119 
vn 1 0 -2.44929e-16 
vn 0.976621 0 -0.21497 
vn 0.994138 0 -0.108119 
vn 0.947653 0 -0.319302 
vn 0.976621 0 -0.21497 
vn 0.907575 0 -0.419889 
vn 0.947653 0 -0.319302 
vn 0.856857 0 -0.515554 
vn 0.907575 0 -0.419889 
vn 0.796093 0 -0.605174 
vn 0.856857 0 -0.515554 
vn 0.725995 0 -0.687699 
vn 0.796093 0 -0.605174 
vn 0.647386 0 -0.762162 
vn 0.725995 0 -0.687699 
vn 0.561187 0 -0.827689 
vn 0.647386 0 -0.762162 
vn 0.468408 0 -0.883512 
vn 0.561187 0 -0.827689 
vn 0.370138 0 -0.928977 
vn 0.468408 0 -0.883512 
vn 0.267528 0 -0.96355 
vn 0.370138 0 -0.928977 
vn 0.161782 0 -0.986827 
vn 0.267528 0 -0.96355 
vn 0.0541389 0 -0.998533 
vn 0.161782 0 -0.986827 
vn -0.0541389 0 -0.998533 
vn 0.0541389 0 -0.998533 
vn -0.161782 0 -0.986827 
vn -0.0541389 0 -0.998533 
vn -0.267528 0 -0.96355 
vn -0.161782 0 -0.986827 
vn -0.370138 0 -0.928977 
vn -0.267528 0 -0.96355 
vn -0.468408 0 -0.883512 
vn -0.370138 0 -0.928977 
vn -0.561187 0 -0.827689 
vn -0.468408 0 -0.883512 
vn -0.647386 0 -0.762162 
vn -0.561187 0 -0.827689 
vn -0.725995 0 -0.687699 
vn -0.647386 0 -0.762162 
vn -0.796093 0 -0.605174 
vn -0.725995 0 -0.687699 
vn -0.856857 0 -0.515554 
vn -0.796093 0 -0.605174 
vn -0.907575 0 -0.419889 
vn -0.856857 0 -0.515554 
vn -0.947653 0 -0.319302 
vn -0.907575 0 -0.419889 
vn -0.976621 0 -0.21497 
vn -0.947653 0 -0.319302 
vn -0.994138 0 -0.108119 
vn -0.976621 0 -0.21497 
vn -1 0 1.22465e-16 
vn -0.994138 0 -0.108119 
vn -0.994138 0 0.108119 
vn -1 0 1.22465e-16 
vn -0.976621 0 0.21497 
vn -0.994138 0 0.108119 
vn -0.947653 0 0.319302 
vn -0.976621 0 0.21497 
vn -0.907575 0 0.419889 
vn -0.947653 0 0.319302 
vn -0.856857 0 0.515554 
vn -0.907575 0 0.419889 
vn -0.796093 0 0.605174 
vn -0.856857 0 0.515554 
vn -0.725995 0 0.687699 
vn -0.796093 0 0.605174 
vn -0.647386 0 0.762162 
vn -0.725995 0 0.687699 
vn -0.561187 0 0.827689 
vn -0.647386 0 0.762162 
vn -0.468408 0 0.883512 
vn -0.561187 0 0.827689 
vn -0.370138 0 0.928977 
vn -0.468408 0 0.883512 
vn -0.267528 0 0.96355 
vn -0.370138 0 0.928977 
vn -0.161782 0 0.986827 
vn -0.267528 0 0.96355 
vn -0.0541389 0 0.998533 
vn -0.161782 0 0.986827 
vn 0.0541389 0 0.998533 
vn -0.0541389 0 0.998533 
vn 0.161782 0 0.986827 
vn 0.0541389 0 0.998533 
vn 0.267528 0 0.96355 
vn 0.161782 0 0.986827 
vn 0.370138 0 0.928977 
vn 0.267528 0 0.96355 
vn 0.468408 0 0.883512 
vn 0.370138 0 0.928977 
vn 0.561187 0 0.827689 
vn 0.468408 0 0.883512 
vn 0.647386 0 0.762162 
vn 0.561187 0 0.827689 
vn 0.725995 0 0.687699 
vn 0.647386 0 0.762162 
vn 0.796093 0 0.605174 
vn 0.725995 0 0.687699 
vn 0.856857 0 0.515554 
vn 0.796093 0 0.605174 
vn 0.907575 0 0.419889 
vn 0.856857 0 0.515554 
vn 0.947653 0 0.319302 
vn 0.907575 0 0.419889 
vn 0.976621 0 0.21497 
vn 0.947653 0 0.319302 
vn 0.994138 0 0.108119 
vn 0.976621 0 0.21497 
vn 0 1 0 
vn 0 -1 0 
vn -0.2 0 0.979796 
vn -0.302722 0 0.953079 
vn -0.402033 0 0.915625 
vn -0.496815 0 0.867856 
vn -0.586001 0 0.810311 
vn -0.668584 0 0.743636 
vn -0.743636 0 0.668584 
vn -0.810311 0 0.586001 
vn -0.867856 0 0.496815 
vn -0.915625 0 0.402033 
vn -0.953079 0 0.302722 
vn -0.979796 0 0.2 
vn -1 0 2.23762e-16 
vn 0 0 1 
vn 1 0 -1.11881e-16 
vn 0.979796 0 0.2 
vn 0.953079 0 0.302722 
vn 0.915625 0 0.402033 
vn 0.867856 0 0.496815 
vn 0.810311 0 0.586001 
vn 0.743636 0 0.668584 
vn 0.668584 0 0.743636 
vn 0.586001 0 0.810311 
vn 0.496815 0 0.867856 
vn 0.402033 0 0.915625 
vn 0.302722 0 0.953079 
vn 0.2 0 0.979796 
vn 1.11881e-16 0 1 
vn 1 0 0 
vn 0 0 -1 
vn 0.2 0 -0.979796 
vn 0.302722 0 -0.953079 
vn 0.402033 0 -0.915625 
vn 0.496815 0 -0.867856 
vn 0.586001 0 -0.810311 
vn 0.668584 0 -0.743636 
vn 0.743636 0 -0.668584 
vn 0.810311 0 -0.586001 
vn 0.867856 0 -0.496815 
vn 0.915625 0 -0.402033 
vn 0.953079 0 -0.302722 
vn 0.979796 0 -0.2 
vn 1 0 -3.35642e-16 
vn 0 0 -1 
vn -1 0 2.23762e-16 
vn -0.979796 0 -0.2 
vn -0.953079 0 -0.302722 
vn -0.915625 0 -0.402033 
vn -0.867856 0 -0.496815 
vn -0.810311 0 -0.586001 
vn -0.743636 0 -0.668584 
vn -0.668584 0 -0.743636 
vn -0.586001 0 -0.810311 
vn -0.496815 0 -0.867856 
vn -0.402033 0 -0.915625 
vn -0.302722 0 -0.953079 
vn -0.2 0 -0.979796 
vn -2.23762e-16 0 -1 
vn -1 0 0 
vn 1.11881e-16 0 1 
usemtl 0.980392_0.713725_0.003922_0.000000_0.000000
o mesh0
f 1//1 2//2 3//2 
f 4//3 1//1 5//4 
f 6//5 4//3 7//6 
f 8//7 6//5 9//8 
f 10//9 8//7 11//10 
f 12//11 10//9 13//12 
f 14//13 12//11 15//14 
f 16//15 14//13 17//16 
f 18//17 16//15 19//18 
f 20//19 18//17 21//20 
f 22//21 20//19 23//22 
f 24//23 22//21 25//24 
f 26//25 24//23 27//26 
f 28//27 26//25 29//28 
f 30//29 28//27 31//30 
f 32//31 30//29 33//32 
f 34//33 32//31 35//34 
f 36//35 34//33 37//36 
f 38//37 36//35 39//38 
f 40//39 38//37 41//40 
f 42//41 40//39 43//42 
f 44//43 42//41 45//44 
f 46//45 44//43 47//46 
f 48//47 46//45 49//48 
f 50//49 48//47 51//50 
f 52//51 50//49 53//52 
f 54//53 52//51 55//54 
f 56//55 54//53 57//56 
f 58//57 56//55 59//58 
f 60//59 58//57 61//60 
f 62//61 60//59 63//62 
f 64//63 62//61 65//64 
f 66//65 64//63 67//66 
f 68//67 66//65 69//68 
f 70//69 68//67 71//70 
f 72//71 70//69 73//72 
f 74//73 72//71 75//74 
f 76//75 74//73 77//76 
f 78//77 76//75 79//78 
f 80//79 78//77 81//80 
f 82//81 80//79 83//82 
f 84//83 82//81 85//84 
f 86//85 84//83 87//86 
f 88//87 86//85 89//88 
f 90//89 88//87 91//90 
f 92//91 90//89 93//92 
f 94//93 92//91 95//94 
f 96//95 94//93 97//96 
f 98//97 96//95 99//98 
f 100//99 98//97 101//100 
f 102//101 100//99 103//102 
f 104//103 102//101 105//104 
f 106//105 104//103 107//106 
f 108//107 106//105 109//108 
f 110//109 108//107 111//110 
f 112//111 110//109 113//112 
f 114//113 112//111 115//114 
f 2//2 114//113 116//113 
f 116//113 3//2 2//2 
f 115//114 116//113 114//113 
f 113//112 115//114 112//111 
f 111//110 113//112 110//109 
f 109//108 111//110 108//107 
f 107//106 109//108 106//105 
f 105//104 107//106 104//103 
f 103//102 105//104 102//101 
f 101//100 103//102 100//99 
f 99//98 101//100 98//97 
f 97//96 99//98 96//95 
f 95//94 97//96 94//93 
f 93//92 95//94 92//91 
f 91//90 93//92 90//89 
f 89//88 91//90 88//87 
f 87//86 89//88 86//85 
f 85//84 87//86 84//83 
f 83//82 85//84 82//81 
f 81//80 83//82 80//79 
f 79//78 81//80 78//77 
f 77//76 79//78 76//75 
f 75//74 77//76 74//73 
f 73//72 75//74 72//71 
f 71//70 73//72 70//69 
f 69//68 71//70 68//67 
f 67//66 69//68 66//65 
f 65//64 67//66 64//63 
f 63//62 65//64 62//61 
f 61//60 63//62 60//59 
f 59//58 61//60 58//57 
f 57//56 59//58 56//55 
f 55//54 57//56 54//53 
f 53//52 55//54 52//51 
f 51//50 53//52 50//49 
f 49//48 51//50 48//47 
f 47//46 49//48 46//45 
f 45//44 47//46 44//43 
f 43//42 45//44 42//41 
f 41//40 43//42 40//39 
f 39//38 41//40 38//37 
f 37//36 39//38 36//35 
f 35//34 37//36 34//33 
f 33//32 35//34 32//31 
f 31//30 33//32 30//29 
f 29//28 31//30 28//27 
f 27//26 29//28 26//25 
f 25//24 27//26 24//23 
f 23//22 25//24 22//21 
f 21//20 23//22 20//19 
f 19//18 21//20 18//17 
f 17//16 19//18 16//15 
f 15//14 17//16 14//13 
f 13//12 15//14 12//11 
f 11//10 13//12 10//9 
f 9//8 11//10 8//7 
f 7//6 9//8 6//5 
f 5//4 7//6 4//3 
f 3//2 5//4 1//1 
o mesh1
f 105//115 117//115 118//115 
f 119//115 9//115 7//115 
f 120//115 11//115 9//115 
f 105//115 121//115 117//115 
f 9//115 119//115 120//115 
f 122//115 13//115 11//115 
f 123//115 17//115 15//115 
f 124//115 19//115 17//115 
f 105//115 125//115 126//115 
f 118//115 127//115 105//115 
f 77//115 128//115 129//115 
f 11//115 120//115 122//115 
f 130//115 15//115 13//115 
f 17//115 123//115 124//115 
f 131//115 21//115 19//115 
f 132//115 23//115 21//115 
f 133//115 25//115 23//115 
f 134//115 27//115 25//115 
f 135//115 29//115 27//115 
f 136//115 137//115 97//115 
f 137//115 138//115 99//115 
f 139//115 121//115 105//115 
f 127//115 125//115 105//115 
f 77//115 140//115 128//115 
f 47//115 141//115 142//115 
f 143//115 111//115 109//115 
f 143//115 115//115 113//115 
f 13//115 122//115 130//115 
f 19//115 124//115 131//115 
f 23//115 132//115 133//115 
f 27//115 134//115 135//115 
f 144//115 91//115 89//115 
f 144//115 136//115 95//115 
f 99//115 97//115 137//115 
f 145//115 139//115 103//115 
f 126//115 143//115 105//115 
f 77//115 146//115 147//115 
f 129//115 148//115 77//115 
f 47//115 149//115 141//115 
f 113//115 111//115 143//115 
f 143//115 3//115 116//115 
f 143//115 7//115 5//115 
f 15//115 130//115 123//115 
f 25//115 133//115 134//115 
f 144//115 81//115 79//115 
f 144//115 93//115 91//115 
f 97//115 95//115 136//115 
f 138//115 145//115 101//115 
f 105//115 103//115 139//115 
f 150//115 51//115 49//115 
f 150//115 55//115 53//115 
f 150//115 61//115 59//115 
f 151//115 67//115 65//115 
f 152//115 69//115 67//115 
f 153//115 71//115 69//115 
f 154//115 73//115 71//115 
f 140//115 77//115 75//115 
f 148//115 146//115 77//115 
f 155//115 156//115 37//115 
f 156//115 157//115 39//115 
f 47//115 158//115 159//115 
f 47//115 160//115 149//115 
f 109//115 107//115 143//115 
f 5//115 3//115 143//115 
f 21//115 131//115 132//115 
f 135//115 33//115 31//115 
f 144//115 83//115 81//115 
f 144//115 87//115 85//115 
f 95//115 93//115 144//115 
f 103//115 101//115 145//115 
f 53//115 51//115 150//115 
f 59//115 57//115 150//115 
f 67//115 151//115 152//115 
f 71//115 153//115 154//115 
f 161//115 75//115 73//115 
f 147//115 144//115 77//115 
f 39//115 37//115 156//115 
f 157//115 162//115 41//115 
f 162//115 163//115 43//115 
f 163//115 164//115 45//115 
f 164//115 160//115 47//115 
f 142//115 158//115 47//115 
f 116//115 115//115 143//115 
f 31//115 29//115 135//115 
f 85//115 83//115 144//115 
f 101//115 99//115 138//115 
f 57//115 55//115 150//115 
f 150//115 65//115 63//115 
f 69//115 152//115 153//115 
f 75//115 161//115 140//115 
f 41//115 39//115 157//115 
f 45//115 43//115 163//115 
f 159//115 150//115 47//115 
f 165//115 33//115 135//115 
f 7//115 143//115 119//115 
f 166//115 143//115 126//115 
f 89//115 87//115 144//115 
f 63//115 61//115 150//115 
f 73//115 154//115 161//115 
f 37//115 35//115 155//115 
f 47//115 45//115 164//115 
f 107//115 105//115 143//115 
f 79//115 77//115 144//115 
f 167//115 144//115 147//115 
f 65//115 150//115 151//115 
f 168//115 150//115 159//115 
f 43//115 41//115 162//115 
f 126//115 169//115 166//115 
f 49//115 47//115 150//115 
f 35//115 33//115 155//115 
f 147//115 170//115 167//115 
f 33//115 165//115 155//115 
f 159//115 171//115 168//115 
f 135//115 172//115 165//115 
o mesh2
f 173//116 40//116 42//116 
f 174//116 38//116 40//116 
f 175//116 46//116 48//116 
f 176//116 44//116 46//116 
f 177//116 42//116 44//116 
f 40//116 173//116 174//116 
f 178//116 34//116 36//116 
f 179//116 32//116 34//116 
f 180//116 100//116 102//116 
f 181//116 98//116 100//116 
f 16//116 182//116 183//116 
f 46//116 175//116 176//116 
f 42//116 177//116 173//116 
f 184//116 36//116 38//116 
f 34//116 178//116 179//116 
f 72//116 185//116 186//116 
f 100//116 180//116 181//116 
f 187//116 96//116 98//116 
f 188//116 94//116 96//116 
f 189//116 92//116 94//116 
f 16//116 190//116 182//116 
f 44//116 176//116 177//116 
f 36//116 184//116 178//116 
f 179//116 28//116 30//116 
f 72//116 191//116 185//116 
f 192//116 8//116 10//116 
f 193//116 102//116 104//116 
f 98//116 181//116 187//116 
f 94//116 188//116 189//116 
f 194//116 90//116 92//116 
f 183//116 195//116 16//116 
f 16//116 179//116 196//116 
f 14//116 197//116 198//116 
f 14//116 199//116 200//116 
f 201//116 54//116 56//116 
f 202//116 52//116 54//116 
f 38//116 174//116 184//116 
f 179//116 26//116 28//116 
f 179//116 22//116 24//116 
f 179//116 18//116 20//116 
f 203//116 204//116 78//116 
f 204//116 205//116 76//116 
f 72//116 206//116 207//116 
f 72//116 208//116 191//116 
f 192//116 6//116 8//116 
f 209//116 110//116 112//116 
f 210//116 108//116 110//116 
f 211//116 106//116 108//116 
f 212//116 104//116 106//116 
f 102//116 193//116 180//116 
f 92//116 189//116 194//116 
f 196//116 190//116 16//116 
f 213//116 199//116 14//116 
f 14//116 214//116 215//116 
f 200//116 197//116 14//116 
f 201//116 58//116 60//116 
f 54//116 201//116 202//116 
f 216//116 50//116 52//116 
f 217//116 48//116 50//116 
f 30//116 32//116 179//116 
f 20//116 22//116 179//116 
f 76//116 78//116 204//116 
f 205//116 218//116 74//116 
f 218//116 208//116 72//116 
f 186//116 206//116 72//116 
f 192//116 4//116 6//116 
f 192//116 2//116 1//116 
f 192//116 112//116 114//116 
f 110//116 209//116 210//116 
f 106//116 211//116 212//116 
f 96//116 187//116 188//116 
f 194//116 86//116 88//116 
f 14//116 16//116 213//116 
f 198//116 214//116 14//116 
f 201//116 66//116 68//116 
f 201//116 62//116 64//116 
f 56//116 58//116 201//116 
f 50//116 216//116 217//116 
f 24//116 26//116 179//116 
f 219//116 220//116 82//116 
f 220//116 203//116 80//116 
f 74//116 76//116 205//116 
f 207//116 201//116 72//116 
f 10//116 12//116 192//116 
f 114//116 2//116 192//116 
f 108//116 210//116 211//116 
f 88//116 90//116 194//116 
f 215//116 192//116 14//116 
f 221//116 196//116 179//116 
f 64//116 66//116 201//116 
f 52//116 202//116 216//116 
f 179//116 16//116 18//116 
f 80//116 82//116 220//116 
f 72//116 74//116 218//116 
f 1//116 4//116 192//116 
f 104//116 212//116 193//116 
f 222//116 192//116 215//116 
f 179//116 223//116 221//116 
f 68//116 70//116 201//116 
f 48//116 217//116 175//116 
f 78//116 80//116 203//116 
f 224//116 86//116 194//116 
f 112//116 192//116 209//116 
f 195//116 213//116 16//116 
f 60//116 62//116 201//116 
f 225//116 201//116 207//116 
f 82//116 84//116 219//116 
f 12//116 14//116 192//116 
f 70//116 72//116 201//116 
f 84//116 86//116 219//116 
f 215//116 226//116 222//116 
f 86//116 224//116 219//116 
f 207//116 227//116 225//116 
f 194//116 228//116 224//116 
o mesh3
f 196//117 135//117 134//118 
f 190//118 134//118 133//119 
f 182//119 133//119 132//120 
f 183//120 132//120 131//121 
f 195//121 131//121 124//122 
f 213//122 124//122 123//123 
f 199//123 123//123 130//124 
f 200//124 130//124 122//125 
f 197//125 122//125 120//126 
f 198//126 120//126 119//127 
f 214//127 119//127 143//128 
f 143//128 215//128 214//127 
f 119//127 214//127 198//126 
f 120//126 198//126 197//125 
f 122//125 197//125 200//124 
f 130//124 200//124 199//123 
f 123//123 199//123 213//122 
f 124//122 213//122 195//121 
f 131//121 195//121 183//120 
f 132//120 183//120 182//119 
f 133//119 182//119 190//118 
f 134//118 190//118 196//117 
o mesh4
f 135//129 196//129 221//129 
f 221//129 172//129 135//129 
o mesh5
f 172//130 221//130 223//130 
f 223//130 165//130 172//130 
o mesh6
f 223//131 179//131 155//131 
f 155//131 165//131 223//131 
o mesh7
f 201//132 159//132 158//133 
f 202//133 158//133 142//134 
f 216//134 142//134 141//135 
f 217//135 141//135 149//136 
f 175//136 149//136 160//137 
f 176//137 160//137 164//138 
f 177//138 164//138 163//139 
f 173//139 163//139 162//140 
f 174//140 162//140 157//141 
f 184//141 157//141 156//142 
f 178//142 156//142 155//143 
f 155//143 179//143 178//142 
f 156//142 178//142 184//141 
f 157//141 184//141 174//140 
f 162//140 174//140 173//139 
f 163//139 173//139 177//138 
f 164//138 177//138 176//137 
f 160//137 176//137 175//136 
f 149//136 175//136 217//135 
f 141//135 217//135 216//134 
f 142//134 216//134 202//133 
f 158//133 202//133 201//132 
o mesh8
f 159//144 201//144 225//144 
f 225//144 171//144 159//144 
o mesh9
f 171//145 225//145 227//145 
f 227//145 168//145 171//145 
o mesh10
f 227//146 207//146 150//146 
f 150//146 168//146 227//146 
o mesh11
f 219//147 147//147 146//148 
f 220//148 146//148 148//149 
f 203//149 148//149 129//150 
f 204//150 129//150 128//151 
f 205//151 128//151 140//152 
f 218//152 140//152 161//153 
f 208//153 161//153 154//154 
f 191//154 154//154 153//155 
f 185//155 153//155 152//156 
f 186//156 152//156 151//157 
f 206//157 151//157 150//158 
f 150//158 207//158 206//157 
f 151//157 206//157 186//156 
f 152//156 186//156 185//155 
f 153//155 185//155 191//154 
f 154//154 191//154 208//153 
f 161//153 208//153 218//152 
f 140//152 218//152 205//151 
f 128//151 205//151 204//150 
f 129//150 204//150 203//149 
f 148//149 203//149 220//148 
f 146//148 220//148 219//147 
o mesh12
f 147//159 219//159 224//159 
f 224//159 170//159 147//159 
o mesh13
f 170//160 224//160 228//160 
f 228//160 167//160 170//160 
o mesh14
f 228//161 194//161 144//161 
f 144//161 167//161 228//161 
o mesh15
f 192//162 126//162 125//163 
f 209//163 125//163 127//164 
f 210//164 127//164 118//165 
f 211//165 118//165 117//166 
f 212//166 117//166 121//167 
f 193//167 121//167 139//168 
f 180//168 139//168 145//169 
f 181//169 145//169 138//170 
f 187//170 138//170 137//171 
f 188//171 137//171 136//172 
f 189//172 136//172 144//173 
f 144//173 194//173 189//172 
f 136//172 189//172 188//171 
f 137//171 188//171 187//170 
f 138//170 187//170 181//169 
f 145//169 181//169 180//168 
f 139//168 180//168 193//167 
f 121//167 193//167 212//166 
f 117//166 212//166 211//165 
f 118//165 211//165 210//164 
f 127//164 210//164 209//163 
f 125//163 209//163 192//162 
o mesh16
f 126//174 192//174 222//174 
f 222//174 169//174 126//174 
o mesh17
f 169//175 222//175 226//175 
f 226//175 166//175 169//175 
o mesh18
f 226//176 215//176 143//176 
f 143//176 166//176 226//176 
